<svg width="24" height="24" viewBox="0 0 24 24" fill="none" xmlns="http://www.w3.org/2000/svg">
<path d="M5 2V18H5.051C4.97687 18.3632 4.98442 18.7383 5.07312 19.0982C5.16182 19.4581 5.32944 19.7938 5.56384 20.0809C5.79825 20.3681 6.09358 20.5995 6.42844 20.7585C6.76331 20.9174 7.12933 20.9999 7.5 21H18V18H19V2H5ZM16 19H7.5C7.36739 19 7.24021 18.9473 7.14645 18.8536C7.05268 18.7598 7 18.6326 7 18.5C7 18.3674 7.05268 18.2402 7.14645 18.1464C7.24021 18.0527 7.36739 18 7.5 18H16V19ZM7.5 16C7.33204 16.0002 7.16453 16.0172 7 16.051V4H17V16H7.5Z" fill="#9AB0A0"/>
<path d="M15 6H9V8H15V6Z" fill="#9AB0A0"/>
</svg>
