<svg width="56" height="56" viewBox="0 0 56 56" fill="none" xmlns="http://www.w3.org/2000/svg">
<rect width="56" height="56" rx="8" fill="#86BC24"/>
<path fill-rule="evenodd" clip-rule="evenodd" d="M20 29H26C26.55 29 27 28.55 27 28V20C27 19.45 26.55 19 26 19H20C19.45 19 19 19.45 19 20V28C19 28.55 19.45 29 20 29ZM20 37H26C26.55 37 27 36.55 27 36V32C27 31.45 26.55 31 26 31H20C19.45 31 19 31.45 19 32V36C19 36.55 19.45 37 20 37ZM30 37H36C36.55 37 37 36.55 37 36V28C37 27.45 36.55 27 36 27H30C29.45 27 29 27.45 29 28V36C29 36.55 29.45 37 30 37ZM29 20V24C29 24.55 29.45 25 30 25H36C36.55 25 37 24.55 37 24V20C37 19.45 36.55 19 36 19H30C29.45 19 29 19.45 29 20Z" fill="white"/>
</svg>
